# xmcd
#
# Track frame offsets:
#	150
#	34766
#	61832
#	78779
#	91381
#	135999
#	156476
#	182417
#	209304
#	239337
#	259820
#
# Disc length: 4286 seconds
#
# Revision: 2
# Processed by: cddbd v1.5.2PL0 Copyright (c) Steve Scherf et al.
# Submitted via: audiograbber 1.83.01
#
DISCID=8810bc0b
DTITLE=петяокоуйас вакйиас - жуса, ьувг лоу! CD3
DYEAR=2015
DGENRE=гпеияытийа
TTITLE0=аяцуяойастяитийо - ояцамийо
TTITLE1=лауяа лоу векидомиа - гкиас йомтгс, амхоука моусг
TTITLE2=пуяцос цуакимос - циаммгс йымстамтимоу
TTITLE3=аябамитийо - ояцамийо
TTITLE4=то лияокои тгс памациас - циаммгс йымстамтимоу
TTITLE5=фацояисио - ояцамийо
TTITLE6=стоу ваяоу тис кабылатиес - гкиас йомтгс
TTITLE7=о ваяос йаи та цгяатеиа - амтымгс йуяитсгс
TTITLE8=лоияокои йаи стяыто пыцымисио - ояцамийо
TTITLE9=помелемос гпеияытгс - амтымгс йуяитсгс
TTITLE10=осламтайас - ояцамийо
EXTD=
EXTT0=
EXTT1=
EXTT2=
EXTT3=
EXTT4=
EXTT5=
EXTT6=
EXTT7=
EXTT8=
EXTT9=
EXTT10=
PLAYORDER=
